HIERARCHY
ROOT reference
{
  OFFSET 0 0 0
  CHANNELS 6 Xposition Yposition Zposition Zrotation Xrotation Yrotation
  JOINT Hips
  {
    OFFSET -165.36 91.4122 110.103
    CHANNELS 6 Xposition Yposition Zposition Zrotation Xrotation Yrotation
    JOINT Spine
    {
      OFFSET 0 8.12958 0
      CHANNELS 6 Xposition Yposition Zposition Zrotation Xrotation Yrotation
      JOINT Spine1
      {
        OFFSET 0 26.3907 0
        CHANNELS 6 Xposition Yposition Zposition Zrotation Xrotation Yrotation
        JOINT Neck
        {
          OFFSET 0 26.2823 2.3893
          CHANNELS 6 Xposition Yposition Zposition Zrotation Xrotation Yrotation
          JOINT Head
          {
            OFFSET 0 13.8798 -1.98282
            CHANNELS 6 Xposition Yposition Zposition Zrotation Xrotation Yrotation
            End Site
            {
              OFFSET 0 24.7853 0
            }
          }
        }
        JOINT LeftShoulder
        {
          OFFSET 3.97789 23.5745 -0.27352
          CHANNELS 6 Xposition Yposition Zposition Zrotation Xrotation Yrotation
          JOINT LeftArm
          {
            OFFSET 13.7626 0 0
            CHANNELS 6 Xposition Yposition Zposition Zrotation Xrotation Yrotation
            JOINT LeftForeArm
            {
              OFFSET 26.1014 0 0
              CHANNELS 6 Xposition Yposition Zposition Zrotation Xrotation Yrotation
              JOINT LeftHand
              {
                OFFSET 29.9599 0 0
                CHANNELS 6 Xposition Yposition Zposition Zrotation Xrotation Yrotation
                End Site
                {
                  OFFSET 14.8712 0 0
                }
              }
            }
          }
        }
        JOINT RightShoulder
        {
          OFFSET -3.9517 23.5745 -0.27352
          CHANNELS 6 Xposition Yposition Zposition Zrotation Xrotation Yrotation
          JOINT RightArm
          {
            OFFSET -13.7626 0 0
            CHANNELS 6 Xposition Yposition Zposition Zrotation Xrotation Yrotation
            JOINT RightForeArm
            {
              OFFSET -26.1014 0 0
              CHANNELS 6 Xposition Yposition Zposition Zrotation Xrotation Yrotation
              JOINT RightHand
              {
                OFFSET -29.9599 0 0
                CHANNELS 6 Xposition Yposition Zposition Zrotation Xrotation Yrotation
                End Site
                {
                  OFFSET -14.8712 0 0
                }
              }
            }
          }
        }
      }
    }
    JOINT LeftUpLeg
    {
      OFFSET 9.91412 0 0
      CHANNELS 6 Xposition Yposition Zposition Zrotation Xrotation Yrotation
      JOINT LeftLeg
      {
        OFFSET 0 -41.4279 0
        CHANNELS 6 Xposition Yposition Zposition Zrotation Xrotation Yrotation
        JOINT LeftFoot
        {
          OFFSET 0 -41.0254 0
          CHANNELS 6 Xposition Yposition Zposition Zrotation Xrotation Yrotation
          JOINT LeftToeBase
          {
            OFFSET 0 -6.44418 14.8712
            CHANNELS 6 Xposition Yposition Zposition Zrotation Xrotation Yrotation
            End Site
            {
              OFFSET 0 0 3.96565
            }
          }
        }
      }
    }
    JOINT RightUpLeg
    {
      OFFSET -9.91412 0 0
      CHANNELS 6 Xposition Yposition Zposition Zrotation Xrotation Yrotation
      JOINT RightLeg
      {
        OFFSET 0 -41.4279 0
        CHANNELS 6 Xposition Yposition Zposition Zrotation Xrotation Yrotation
        JOINT RightFoot
        {
          OFFSET 0 -41.0254 0
          CHANNELS 6 Xposition Yposition Zposition Zrotation Xrotation Yrotation
          JOINT RightToeBase
          {
            OFFSET 0 -6.44418 14.8712
            CHANNELS 6 Xposition Yposition Zposition Zrotation Xrotation Yrotation
            End Site
            {
              OFFSET 0 0 3.96565
            }
          }
        }
      }
    }
  }
}
MOTION
Frames:	6
Frame Time:	0.004
0 0 0 0 0 -0 -18.186 83.0483 -204.612 0.750555 -1.28069 2.62415 1.77636e-015 8.12958 0 -0.246773 0.0750228 -1.51042 1.77636e-015 26.3907 0 -2.52233 -4.33296 -1.61361 0 26.2823 2.3893 5.62806 13.2081 -3.60814 3.55271e-015 13.8798 -1.98282 0.0319234 -7.30084 -3.91215 3.97789 23.5745 -0.27352 13.977 0.0633281 1.44573 13.7626 0 -2.84217e-014 -17.7645 -2.15975 3.60122 26.1014 2.84217e-014 0 4.51386 3.41874 -0.238994 29.9599 0 0 0.455075 3.43049 0.589831 -3.9517 23.5745 -0.27352 -7.69084 3.52636 0.303616 -13.7626 0 0 14.0255 7.12648 -8.70299 -26.1014 0 -2.84217e-014 -3.9698 -3.36824 0.909498 -29.9599 0 -2.84217e-014 -3.85873 -3.43891 3.04283 9.91412 1.42109e-014 2.84217e-014 -1.01041 5.09141 -2.98702 0 -41.4279 2.84217e-014 0.411668 -4.33737 5.9291 0 -41.0254 0 4.53011 -2.52373 5.09694 -3.55271e-015 -6.44418 14.8712 5.96354e-016 3.97569e-016 -0 -9.91412 0 -2.84217e-014 0.0192715 5.22127 2.37128 0 -41.4279 0 0.856429 -5.25116 3.57437 0 -41.0254 0 -1.56579 -3.476 -19.6838 0 -6.44418 14.8712 -0 -7.95139e-016 -0 
0 0 0 0 0 -0 -18.1954 83.0483 -204.602 0.750445 -1.27353 2.63397 0 8.12958 0 -0.247105 0.062457 -1.51042 3.55271e-015 26.3907 0 -2.54429 -4.33296 -1.61361 -3.55271e-015 26.2823 2.3893 5.66356 13.2202 -3.60832 0 13.8798 -1.98282 0.0122613 -7.32499 -3.91236 3.97789 23.5745 -0.27352 13.9946 0.0737913 1.44573 13.7626 -2.84217e-014 0 -17.7635 -2.17456 3.60126 26.1014 -2.84217e-014 -2.84217e-014 4.51388 3.42396 -0.238995 29.9599 2.84217e-014 0 0.484617 3.43576 0.589834 -3.9517 23.5745 -0.27352 -7.67087 3.52408 0.294955 -13.7626 0 0 14.0118 7.10201 -8.70252 -26.1014 0 2.84217e-014 -3.95954 -3.33412 0.909466 -29.9599 2.84217e-014 0 -3.86183 -3.40668 3.08668 9.91412 1.42109e-014 0 -1.01041 5.09141 -2.98702 1.77636e-015 -41.4279 -2.84217e-014 0.416781 -4.34267 5.9182 -1.77636e-015 -41.0254 0 4.53387 -2.51906 5.09111 0 -6.44418 14.8712 -1.2921e-015 0 -0 -9.91412 1.42109e-014 0 0.0192715 5.22127 2.37128 0 -41.4279 0 0.855244 -5.26463 3.55241 -3.55271e-015 -41.0254 0 -1.57487 -3.47828 -19.6838 1.42109e-014 -6.44418 14.8712 2.20695e-032 7.95139e-016 -1.59028e-015 
0 0 0 0 0 -0 -18.2 83.0483 -204.598 0.753615 -1.26785 2.64137 3.55271e-015 8.12958 -2.84217e-014 -0.24722 0.057983 -1.51275 1.77636e-015 26.3907 0 -2.53858 -4.33296 -1.61361 0 26.2823 2.3893 5.6598 13.223 -3.60836 3.55271e-015 13.8798 -1.98282 0.0112269 -7.3264 -3.91237 3.97789 23.5745 -0.27352 13.9926 0.0562161 1.44572 13.7626 0 0 -17.7636 -2.1726 3.60125 26.1014 0 0 4.51395 3.44131 -0.239 29.9599 -2.84217e-014 -2.84217e-014 0.493065 3.45294 0.589845 -3.9517 23.5745 -0.27352 -7.66941 3.53906 0.282492 -13.7626 5.68434e-014 0 14.0094 7.09521 -8.70239 -26.1014 -1.42109e-014 0 -3.95632 -3.34246 0.909474 -29.9599 2.84217e-014 0 -3.89671 -3.41526 3.06651 9.91412 0 -2.84217e-014 -1.01041 5.09141 -2.98702 0 -41.4279 0 0.428036 -4.35138 5.92493 -1.77636e-015 -41.0254 0 4.51845 -2.50597 5.08486 -3.55271e-015 -6.44418 14.8712 2.98177e-016 0 -0 -9.91412 0 -2.84217e-014 0.0185895 5.2213 2.36374 -3.55271e-015 -41.4279 0 0.856062 -5.26826 3.55885 -3.55271e-015 -41.0254 0 -1.54738 -3.49007 -19.6841 0 -6.44418 14.8712 -5.96354e-016 0 -0 
0 0 0 0 0 -0 -18.205 83.0483 -204.593 0.755009 -1.26415 2.64726 3.55271e-015 8.12958 0 -0.247412 0.0506319 -1.51597 0 26.3907 0 -2.54215 -4.33296 -1.61361 0 26.2823 2.3893 5.65309 13.2363 -3.60856 0 13.8798 -1.98282 0.0278113 -7.34479 -3.91253 3.97789 23.5745 -0.27352 13.9915 0.0663681 1.44573 13.7626 0 2.84217e-014 -17.7631 -2.18167 3.60128 26.1014 0 -2.84217e-014 4.51402 3.45685 -0.239004 29.9599 0 0 0.519406 3.46852 0.589241 -3.9517 23.5745 -0.27352 -7.66468 3.54456 0.283904 -13.7626 0 0 14.0019 7.09169 -8.71877 -26.1014 1.42109e-014 -2.84217e-014 -3.90845 -3.35823 0.908616 -29.9599 0 0 -3.99252 -3.43314 3.04148 9.91412 0 -2.84217e-014 -1.01041 5.09141 -2.98702 -3.55271e-015 -41.4279 -2.84217e-014 0.426791 -4.35498 5.94115 1.77636e-015 -41.0254 0 4.51202 -2.51266 5.05505 0 -6.44418 14.8712 -6.95746e-016 -3.97569e-016 1.59028e-015 -9.91412 -1.42109e-014 -2.84217e-014 0.0212279 5.22135 2.35005 -7.10543e-015 -41.4279 0 0.857451 -5.27056 3.57237 0 -41.0254 0 -1.58225 -3.48257 -19.6714 0 -6.44418 14.8712 1.98785e-016 -1.59028e-015 -0 
0 0 0 0 0 -0 -18.2113 83.0483 -204.588 0.756188 -1.26085 2.65596 0 8.12958 0 -0.249285 0.0539629 -1.51932 0 26.3907 2.84217e-014 -2.54075 -4.33351 -1.61361 0 26.2823 2.3893 5.65145 13.2385 -3.6086 0 13.8798 -1.98282 0.0213648 -7.35164 -3.91259 3.97789 23.5745 -0.27352 13.9902 0.0555161 1.44572 13.7626 0 0 -17.7638 -2.16922 3.6037 26.1014 2.84217e-014 0 4.50733 3.46263 -0.239005 29.9599 -2.84217e-014 2.84217e-014 0.541166 3.47443 0.60297 -3.9517 23.5745 -0.27352 -7.67449 3.53844 0.281252 -13.7626 -2.84217e-014 2.84217e-014 13.9959 7.06334 -8.72452 -26.1014 0 2.84217e-014 -3.93391 -3.3297 0.920541 -29.9599 2.84217e-014 0 -3.91773 -3.40306 3.07142 9.91412 0 0 -1.01041 5.09141 -2.98702 0 -41.4279 2.84217e-014 0.430655 -4.35471 5.92054 1.77636e-015 -41.0254 0 4.50715 -2.52227 5.06153 -7.10543e-015 -6.44418 14.8712 -6.95746e-016 0 1.59028e-015 -9.91412 0 0 0.0222675 5.22133 2.35556 0 -41.4279 -2.84217e-014 0.855575 -5.27214 3.55097 0 -41.0254 0 -1.57746 -3.48124 -19.6895 0 -6.44418 14.8712 2.20695e-032 7.95139e-016 -1.59028e-015 
0 0 0 0 0 -0 -18.2164 83.0483 -204.584 0.757385 -1.25805 2.66647 0 8.12958 -2.84217e-014 -0.257959 0.047157 -1.52225 0 26.3907 0 -2.53269 -4.33405 -1.61587 3.55271e-015 26.2823 2.3893 5.63827 13.2355 -3.60855 -3.55271e-015 13.8798 -1.98282 0.0395233 -7.34464 -3.91253 3.97789 23.5745 -0.27352 13.9838 0.0480131 1.44572 13.7626 -2.84217e-014 2.84217e-014 -17.7621 -2.16913 3.60615 26.1014 2.84217e-014 -2.84217e-014 4.50489 3.48574 -0.239011 29.9599 2.84217e-014 0 0.563085 3.49774 0.606169 -3.9517 23.5745 -0.27352 -7.67777 3.55019 0.279864 -13.7626 2.84217e-014 0 13.9906 7.04312 -8.72361 -26.1014 -1.42109e-014 0 -3.90001 -3.33453 0.90418 -29.9599 0 0 -3.95775 -3.41013 3.08148 9.91412 -1.42109e-014 -2.84217e-014 -1.01048 5.09142 -2.98617 1.77636e-015 -41.4279 0 0.4374 -4.35405 5.91907 0 -41.0254 0 4.50883 -2.52393 5.06274 3.55271e-015 -6.44418 14.8712 1.2921e-015 3.97569e-016 -1.59028e-015 -9.91412 0 0 0.025728 5.21809 2.33715 0 -41.4279 -2.84217e-014 0.855065 -5.27026 3.54669 0 -41.0254 2.84217e-014 -1.58856 -3.48315 -19.6604 0 -6.44418 14.8712 3.97569e-016 7.95139e-016 -1.59028e-015 
